<svg xmlns="http://www.w3.org/2000/svg" viewBox="0 0 512 512" width="100%" height="100%">
  <rect width="512" height="512" rx="112" fill="#0A0A0A" />
  
  <rect x="8" y="8" width="496" height="496" rx="104" fill="none" stroke="#FF3B3B" stroke-width="4" stroke-opacity="0.15" />

  <g transform="translate(116, 106)">
    <path d="M 32 0 
             L 180 0 
             L 248 68 
             L 248 268 
             A 32 32 0 0 1 216 300 
             L 32 300 
             A 32 32 0 0 1 0 268 
             L 0 32 
             A 32 32 0 0 1 32 0 Z" 
          fill="#1A1A1A" 
          stroke="#242424" 
          stroke-width="8" />

    <path d="M 180 0 L 180 44 A 24 24 0 0 0 204 68 L 248 68 Z" 
          fill="#FF3B3B" />

    <line x1="44" y1="90" x2="160" y2="90" stroke="#FFFFFF" stroke-width="12" stroke-linecap="round" opacity="0.9" />
    <line x1="44" y1="140" x2="204" y2="140" stroke="#999999" stroke-width="12" stroke-linecap="round" opacity="0.7" />
    <line x1="44" y1="190" x2="140" y2="190" stroke="#999999" stroke-width="12" stroke-linecap="round" opacity="0.7" />
  </g>

  <circle cx="360" cy="360" r="28" fill="#FF3B3B" />
  <circle cx="360" cy="360" r="14" fill="#000000" />
</svg>
